<svg xmlns:dc="http://purl.org/dc/elements/1.1/" xmlns:cc="http://creativecommons.org/ns#" xmlns:rdf="http://www.w3.org/1999/02/22-rdf-syntax-ns#" xmlns:svg="http://www.w3.org/2000/svg" xmlns="http://www.w3.org/2000/svg" xmlns:sodipodi="http://sodipodi.sourceforge.net/DTD/sodipodi-0.dtd" xmlns:inkscape="http://www.inkscape.org/namespaces/inkscape" version="1.1" x="0px" y="0px" viewBox="0 0 100 125"><g transform="translate(0,-952.36218)"><path style="font-size:medium;font-style:normal;font-variant:normal;font-weight:normal;font-stretch:normal;text-indent:0;text-align:start;text-decoration:none;line-height:normal;letter-spacing:normal;word-spacing:normal;text-transform:none;direction:ltr;block-progression:tb;writing-mode:lr-tb;text-anchor:start;baseline-shift:baseline;opacity:1;color:#000000;fill:#000000;fill-opacity:1;stroke:none;stroke-width:2;marker:none;visibility:visible;display:inline;overflow:visible;enable-background:accumulate;font-family:Sans;-inkscape-font-specification:Sans" d="M 15.8125 23 A 1.0001 1.0001 0 0 0 15 24 L 15 71.125 A 1.0001 1.0001 0 0 0 16 72.125 L 41.09375 72.125 C 44.985129 72.125 47.645108 73.5295 49.09375 76.4375 A 1.0001 1.0001 0 0 0 50.90625 76.4375 C 52.354892 73.5295 55.014871 72.125 58.90625 72.125 L 84 72.125 A 1.0001 1.0001 0 0 0 85 71.125 L 85 24 A 1.0001 1.0001 0 0 0 84 23 L 58.90625 23 C 55.165296 23 51.644614 25.20242 50 28.3125 C 48.355386 25.20242 44.834704 23 41.09375 23 L 16 23 A 1.0001 1.0001 0 0 0 15.90625 23 A 1.0001 1.0001 0 0 0 15.8125 23 z M 17 25 L 41.09375 25 C 45.101226 25 49 28.42666 49 32 L 49 73.125 C 47.049565 71.172483 44.322284 70.125 41.09375 70.125 L 17 70.125 L 17 25 z M 58.90625 25 L 83 25 L 83 70.125 L 58.90625 70.125 C 55.677716 70.125 52.950435 71.172483 51 73.125 L 51 32 C 51 28.42666 54.898774 25 58.90625 25 z " transform="translate(0,952.36218)"/></g><text x="0" y="115" fill="#000000" font-size="5px" font-weight="bold" font-family="'Helvetica Neue', Helvetica, Arial-Unicode, Arial, Sans-serif">Created by emma mitchell</text><text x="0" y="120" fill="#000000" font-size="5px" font-weight="bold" font-family="'Helvetica Neue', Helvetica, Arial-Unicode, Arial, Sans-serif">from the Noun Project</text></svg>